<?xml version="1.0" standalone="no"?>
<!DOCTYPE svg PUBLIC "-//W3C//DTD SVG 20010904//EN"
 "http://www.w3.org/TR/2001/REC-SVG-20010904/DTD/svg10.dtd">
<svg version="1.0" xmlns="http://www.w3.org/2000/svg"
 width="1024.000000pt" height="1024.000000pt" viewBox="0 0 1024.000000 1024.000000"
 preserveAspectRatio="xMidYMid meet">
<metadata>
Created by potrace 1.14, written by Peter Selinger 2001-2017
</metadata>
<g transform="translate(0.000000,1024.000000) scale(0.100000,-0.100000)"
fill="#000000" stroke="none">
<path d="M0 5120 l0 -5120 5120 0 5120 0 0 5120 0 5120 -5120 0 -5120 0 0
-5120z m2081 4126 c25 -55 63 -93 125 -127 27 -14 49 -32 49 -38 0 -7 -22 -21
-49 -32 -60 -22 -99 -58 -126 -115 -11 -24 -26 -44 -33 -44 -7 0 -23 20 -34
44 -25 51 -73 93 -135 117 -60 23 -61 44 -3 69 73 31 103 57 136 116 17 30 35
54 40 54 5 0 18 -20 30 -44z m3029 14 c11 -11 20 -26 20 -34 0 -8 14 -16 33
-20 61 -11 829 -106 858 -106 17 0 43 10 58 21 38 28 80 16 101 -28 8 -17 23
-34 32 -39 43 -22 427 -250 465 -276 l42 -28 39 20 c27 14 49 19 66 14 30 -7
66 -48 66 -75 0 -11 13 -22 37 -30 36 -11 273 -119 374 -169 44 -21 47 -26 52
-69 5 -41 3 -49 -21 -70 l-27 -24 27 17 c36 21 36 21 43 -17 6 -30 15 -37 80
-68 l73 -35 6 29 c3 17 1 36 -4 43 -15 17 4 28 28 15 15 -8 162 -161 273 -285
31 -34 38 -37 57 -27 46 25 96 -21 90 -84 -3 -31 9 -48 137 -194 125 -145 142
-161 171 -161 48 0 84 -34 84 -80 0 -20 -6 -43 -13 -49 -16 -13 -11 -52 29
-245 43 -205 51 -229 87 -246 31 -14 32 -17 32 -75 0 -68 -12 -48 155 -256 47
-58 98 -124 114 -145 24 -33 34 -39 57 -36 20 3 35 -3 53 -21 34 -34 33 -62
-5 -99 -29 -30 -33 -44 -80 -292 -89 -468 -113 -627 -100 -662 26 -72 -5 -118
-74 -112 -37 4 -51 -3 -190 -100 -221 -154 -223 -155 -217 -192 4 -25 -2 -36
-33 -66 -30 -28 -41 -49 -56 -107 -22 -85 -23 -109 -7 -153 22 -61 -28 -116
-86 -94 -22 8 -61 -14 -323 -182 -368 -235 -353 -224 -353 -253 0 -40 -33 -70
-77 -69 l-39 1 -111 -166 c-145 -218 -165 -252 -153 -271 16 -25 11 -69 -10
-90 -25 -25 -70 -26 -102 0 -29 22 -20 23 -448 -62 -252 -49 -280 -49 -440 15
-63 25 -118 43 -122 39 -3 -4 16 -72 43 -151 27 -79 59 -181 71 -225 13 -48
31 -92 45 -107 33 -36 29 -89 -9 -107 -35 -17 -76 -1 -89 35 -7 20 -55 60
-171 141 -142 99 -166 112 -203 112 -22 0 -46 5 -53 12 -14 14 -16 67 -2 88
14 23 -196 429 -230 443 -56 24 -74 61 -51 105 7 13 -10 43 -69 127 -77 109
-78 110 -115 106 -29 -2 -43 3 -64 23 -23 22 -42 28 -107 36 -43 5 -254 34
-467 64 -280 41 -393 53 -407 46 -28 -15 -71 -12 -92 7 -19 17 -24 68 -9 92 6
9 -20 73 -78 193 -71 149 -89 178 -104 174 -32 -8 -75 14 -85 43 -10 28 -14
29 -203 65 -107 20 -249 48 -316 62 -113 23 -124 24 -145 10 -12 -9 -32 -16
-43 -16 -27 0 -64 27 -74 54 l-9 21 -168 -12 c-254 -17 -398 -34 -409 -48 -15
-17 -51 -35 -72 -35 -34 0 -56 25 -62 70 -6 43 -7 44 -206 186 -154 111 -205
142 -220 137 -78 -27 -124 28 -94 111 12 33 -6 176 -87 681 -35 222 -37 231
-65 253 -58 47 -23 132 55 132 28 0 42 14 146 147 196 249 199 254 190 277
-12 34 8 74 44 87 l32 12 27 166 c40 243 43 284 23 300 -23 19 -20 70 6 98 15
16 33 23 59 23 36 0 41 4 182 181 141 176 145 182 140 221 -4 23 0 49 7 63 17
32 68 49 104 35 15 -5 28 -10 29 -10 2 0 59 65 127 144 128 148 156 174 171
159 4 -4 13 -109 18 -233 17 -337 17 -381 6 -376 -5 2 -9 9 -7 15 1 7 -1 10
-5 8 -10 -6 -79 44 -81 58 -1 6 -6 10 -10 10 -18 0 -111 72 -104 80 4 5 2 5
-5 2 -6 -4 -25 4 -41 18 -24 20 -31 22 -35 11 -7 -17 33 -55 181 -175 57 -46
154 -132 215 -191 62 -59 169 -158 240 -221 119 -107 127 -115 127 -150 0 -36
-2 -38 -42 -47 -24 -5 -157 -37 -296 -71 -139 -34 -294 -70 -345 -81 -50 -10
-204 -44 -340 -74 -137 -31 -257 -56 -268 -56 -33 0 -23 -37 18 -63 21 -13
128 -72 238 -132 110 -59 257 -139 328 -177 l127 -69 0 -44 c0 -53 19 -38
-319 -250 -252 -158 -256 -160 -256 -194 l0 -33 290 -147 c160 -81 353 -176
430 -211 271 -122 306 -140 301 -149 -7 -11 -101 -56 -241 -116 -55 -24 -147
-64 -205 -90 -58 -26 -179 -78 -270 -117 -91 -39 -169 -74 -174 -79 -5 -4 -6
-14 -3 -21 4 -12 29 -12 158 3 85 10 210 21 279 25 69 3 140 13 159 20 18 8
51 14 72 14 22 0 41 6 46 14 22 39 217 234 229 229 8 -3 14 -9 14 -15 0 -10
51 -57 63 -58 5 0 17 10 26 21 17 22 17 22 49 -26 17 -26 29 -52 25 -58 -3 -6
-1 -7 5 -3 12 7 35 -27 25 -38 -3 -3 -1 -6 5 -6 7 0 12 -7 12 -15 0 -9 7 -18
16 -22 8 -3 13 -12 10 -20 -3 -8 -1 -11 4 -8 6 3 10 -3 10 -13 0 -11 8 -26 18
-33 15 -12 16 -12 7 1 -5 9 0 5 12 -9 26 -30 21 -61 -7 -36 -15 13 -18 14 -23
2 -3 -9 4 -20 19 -27 36 -20 29 -30 -18 -29 -33 0 -38 2 -23 9 17 7 17 9 3 9
-14 1 -16 5 -8 25 9 24 8 25 -46 25 -31 0 -53 -3 -50 -6 9 -9 -26 -32 -48 -33
-44 0 0 -12 135 -35 79 -14 152 -30 161 -35 14 -8 23 -5 38 10 27 27 73 25
106 -4 l28 -23 61 27 c34 15 92 38 129 50 36 13 69 27 72 32 8 12 -209 278
-219 268 -15 -14 -45 23 -35 43 5 9 5 17 0 17 -12 0 -32 68 -25 86 3 8 15 16
27 19 24 5 788 113 854 120 23 3 62 8 87 11 45 5 45 5 45 -25 0 -21 7 -34 21
-42 15 -7 18 -14 11 -21 -14 -14 14 -58 37 -58 14 0 14 -2 1 -11 -12 -8 -10
-10 10 -8 62 4 99 -2 120 -19 l23 -18 -37 -190 c-20 -104 -44 -220 -52 -259
-8 -38 -17 -77 -18 -86 -3 -14 12 -17 103 -23 58 -3 193 -11 299 -17 106 -7
195 -9 198 -6 3 3 -12 32 -33 64 -22 32 -75 117 -118 188 -43 72 -120 195
-170 275 -106 167 -129 209 -120 218 13 13 22 0 340 -514 122 -198 139 -222
163 -222 15 0 90 15 167 35 77 19 214 50 305 68 91 18 262 53 380 78 346 74
817 164 940 182 63 8 127 18 143 21 24 6 27 3 27 -18 0 -13 5 -29 11 -35 14
-14 -106 -178 -310 -423 -184 -220 -213 -250 -239 -250 -22 0 -354 -75 -492
-111 -41 -11 -83 -21 -92 -22 -10 -1 -18 -3 -18 -4 0 -2 26 -38 58 -80 31 -42
104 -146 162 -232 105 -156 105 -156 205 -223 105 -71 139 -80 159 -43 15 27
202 310 237 359 20 26 27 46 23 61 -7 28 19 82 43 89 10 3 36 6 58 8 28 2 64
18 120 54 44 28 189 120 323 204 142 89 242 158 242 167 0 9 -39 57 -87 107
-181 189 -277 306 -251 306 11 0 103 -96 298 -312 l45 -49 31 15 c29 15 33 24
54 112 20 88 20 97 6 119 -9 13 -16 37 -16 53 0 29 -2 30 -187 92 -104 35
-194 65 -200 68 -7 2 -13 -2 -13 -9 0 -7 -10 -23 -22 -36 -43 -46 -121 -20
-134 45 -5 24 -36 43 -282 170 -564 289 -677 350 -677 363 0 8 5 14 10 14 12
0 756 -379 875 -446 83 -46 86 -47 105 -30 30 27 47 30 77 13 18 -10 31 -13
37 -7 4 6 68 98 141 205 73 107 172 249 220 315 142 195 142 196 129 234 -8
23 -8 39 -1 55 9 19 3 30 -39 78 -71 81 -189 241 -189 255 0 29 23 6 136 -137
101 -127 123 -150 146 -150 23 0 29 6 37 38 5 20 48 183 96 362 47 179 88 335
92 348 4 15 1 22 -10 22 -8 0 -20 7 -27 15 -12 14 -18 11 -54 -24 -23 -21 -93
-80 -156 -131 -63 -51 -147 -120 -186 -154 -65 -56 -71 -64 -66 -93 9 -65 -81
-110 -128 -63 -45 45 -8 120 60 120 30 0 52 13 141 88 104 85 299 243 349 281
l25 19 -25 11 c-14 6 -173 40 -354 76 -290 58 -331 64 -345 51 -32 -29 -65
-35 -100 -19 -30 15 -40 14 -174 -15 -78 -18 -385 -79 -682 -137 -297 -59
-614 -122 -704 -141 -90 -19 -193 -39 -229 -44 -51 -9 -70 -17 -92 -40 -33
-35 -71 -39 -100 -10 -24 24 -26 57 -4 88 20 29 86 31 106 3 14 -19 14 -19 26
-1 11 18 245 208 341 278 39 28 44 29 69 16 15 -8 34 -14 43 -14 18 0 74 57
83 85 6 19 104 85 395 263 94 57 143 81 157 78 11 -3 36 -1 55 4 31 9 49 2
299 -129 146 -77 288 -152 316 -167 l51 -28 24 23 c19 18 32 22 60 18 l37 -5
56 152 c31 83 91 251 135 374 l79 223 -29 29 c-16 15 -29 35 -29 44 0 8 -5 18
-12 22 -7 5 -8 3 -3 -5 6 -10 -48 -12 -256 -9 -272 5 -274 5 -546 64 -20 4
-23 11 -23 55 0 37 -5 55 -19 67 -26 23 -111 375 -111 458 0 33 -12 45 -25 24
-3 -5 -25 -10 -47 -10 l-41 0 6 -62 c4 -35 9 -133 13 -218 l6 -155 -45 -28
c-44 -27 -45 -29 -49 -85 -2 -41 2 -67 15 -92 10 -19 45 -111 78 -205 38 -107
69 -179 84 -195 34 -36 33 -82 -1 -109 -15 -12 -34 -21 -44 -21 -29 0 -70 39
-70 66 0 15 13 38 30 55 l29 30 -28 72 c-16 40 -48 125 -71 190 -33 91 -48
120 -65 127 -18 7 -549 100 -672 117 -18 3 -33 9 -33 13 0 5 -9 6 -20 3 -15
-4 -20 0 -20 16 0 14 -6 21 -20 21 -11 0 -20 5 -20 12 0 6 -6 3 -14 -8 -8 -10
-18 -16 -22 -11 -4 4 -2 7 5 7 8 0 11 19 10 64 -1 36 -5 65 -8 64 -3 0 -15 0
-26 1 -16 2 -13 6 15 22 43 25 30 21 -43 -11 -31 -14 -57 -31 -57 -37 0 -7 -5
-13 -11 -13 -5 0 -7 5 -4 10 3 6 -6 5 -21 -2 -22 -10 -24 -14 -10 -16 12 -3
15 -9 11 -23 -4 -13 -2 -19 9 -19 9 0 16 -8 16 -19 0 -25 -39 -30 -133 -17
l-67 10 -28 -33 c-35 -42 -76 -45 -108 -8 -25 29 -36 23 -48 -27 -5 -20 -2
-34 9 -46 23 -26 10 -47 -25 -42 -25 4 -30 9 -30 33 0 16 -6 29 -12 30 -7 0
-21 2 -31 4 -9 2 -15 0 -13 -4 3 -4 -10 -14 -27 -23 -45 -23 -69 -30 -62 -18
9 14 1 13 -39 -7 -19 -9 -32 -21 -29 -26 3 -6 1 -7 -5 -3 -16 9 -88 -21 -394
-167 -27 -12 -47 -29 -48 -38 0 -9 -9 -28 -20 -42 l-21 -26 144 -278 c80 -153
186 -354 236 -447 62 -115 88 -173 82 -179 -6 -6 -12 -9 -14 -6 -13 16 -98
169 -105 189 -12 31 -160 302 -171 313 -5 5 -134 -16 -287 -47 -154 -30 -315
-60 -360 -66 l-80 -12 4 -29 c10 -66 -62 -105 -108 -59 -40 40 -15 110 40 110
28 0 135 107 437 436 136 148 121 149 -153 10 -126 -63 -291 -149 -367 -191
-75 -41 -141 -75 -146 -75 -5 0 -21 21 -36 48 -43 74 -167 272 -170 272 -2 0
-15 -4 -30 -10 -33 -12 -90 9 -99 37 -7 22 27 25 -339 -32 -97 -15 -180 -26
-182 -23 -7 7 70 575 91 668 9 41 16 91 16 111 l0 37 312 157 c431 218 626
325 626 343 0 9 10 26 22 39 34 37 103 28 120 -16 1 -5 210 33 462 83 443 88
459 92 468 116 18 51 81 67 118 30z m-2248 -507 l80 -46 -6 -46 c-4 -25 -6
-70 -6 -100 1 -47 -1 -53 -17 -48 -16 6 -17 5 -1 -5 15 -11 13 -15 -20 -35
-20 -12 -41 -22 -47 -22 -5 0 1 6 14 13 24 13 40 56 21 56 -6 0 -10 -7 -10
-15 0 -8 -7 -15 -15 -15 -21 0 -19 17 5 37 27 24 25 30 -10 27 -34 -2 -63 -21
-54 -35 3 -5 0 -17 -5 -26 -8 -14 -10 -6 -11 34 0 72 -4 80 -45 75 -33 -4 -35
-6 -35 -43 0 -21 -4 -39 -8 -39 -4 0 -8 -10 -9 -21 -3 -29 -7 -31 -37 -18 -26
12 -26 13 -26 118 l0 106 78 47 c42 25 78 47 80 47 2 1 39 -20 84 -46z m4770
-5 l81 -42 -7 -104 c-4 -58 -9 -109 -12 -113 -2 -5 -38 -26 -79 -47 l-74 -39
-73 41 -73 42 -3 111 -3 111 73 40 c40 23 77 41 81 42 5 0 45 -19 89 -42z
m989 -4 c56 -60 12 -159 -71 -159 -57 0 -95 40 -94 97 2 56 37 88 98 88 33 0
48 -6 67 -26z m-6661 -267 c31 -54 -32 -108 -89 -76 -45 25 -40 91 6 107 36
12 64 1 83 -31z m860 -43 c0 -8 -19 -13 -24 -6 -3 5 1 9 9 9 8 0 15 -2 15 -3z
m2957 -171 c-3 -3 -11 -2 -17 2 -9 6 -9 10 1 16 14 8 27 -7 16 -18z m3112 -11
c20 -22 45 -44 56 -51 20 -11 20 -12 -4 -29 -33 -24 -64 -55 -78 -78 -13 -19
-13 -19 -25 0 -15 23 -46 53 -79 79 -24 17 -24 18 -4 30 11 6 36 29 55 49 19
20 37 37 39 37 2 1 20 -16 40 -37z m-3174 -20 c-3 -3 -11 0 -18 7 -9 10 -8 11
6 5 10 -3 15 -9 12 -12z m1193 -86 l52 -26 0 -54 c0 -53 0 -53 -52 -88 l-53
-35 -62 29 -63 28 0 55 c0 31 5 59 13 65 27 25 102 67 107 60 3 -4 29 -19 58
-34z m-5358 20 c6 -8 10 -25 8 -38 -6 -42 -78 -32 -78 11 0 37 46 55 70 27z
m4224 -17 c-31 -12 -39 -10 -19 5 11 8 24 12 29 8 5 -3 1 -9 -10 -13z m173
-215 c42 -19 43 -20 43 -69 0 -48 -2 -51 -42 -77 l-42 -27 -41 24 c-38 23 -40
27 -43 78 -3 52 -2 53 35 75 21 12 40 20 43 19 3 -2 24 -12 47 -23z m-132
-179 c14 -14 25 -30 25 -35 0 -6 11 -10 24 -10 37 0 72 -35 96 -97 12 -32 29
-73 37 -91 8 -18 16 -42 18 -54 3 -12 28 -81 57 -155 35 -88 58 -133 68 -133
8 0 30 -9 48 -20 26 -16 32 -26 32 -52 0 -18 -4 -38 -8 -44 -9 -15 -47 -34
-65 -34 -28 0 -59 36 -66 75 l-6 39 -225 128 c-124 70 -228 128 -232 128 -9 0
-98 -107 -211 -254 -123 -159 -179 -225 -195 -231 -13 -5 -13 -3 1 13 19 21
22 42 7 42 -5 0 -10 5 -10 11 0 5 4 8 9 4 5 -3 12 -2 15 3 4 7 -12 12 -56 15
-13 1 -18 10 -19 32 -1 16 -7 -22 -14 -85 -11 -114 -11 -115 12 -143 30 -36
29 -62 -2 -92 -26 -27 -51 -31 -88 -14 -59 27 -54 108 7 130 l32 12 12 191
c14 209 39 492 47 517 4 12 -2 16 -26 17 -40 1 -57 16 -65 59 -16 87 105 117
135 32 6 -17 15 -28 20 -25 14 9 526 145 548 146 7 0 24 -11 38 -25z m432 -76
c120 -44 268 -99 328 -121 61 -22 115 -45 120 -51 7 -7 4 -8 -10 -3 -11 4
-109 30 -217 57 -130 33 -236 67 -315 100 -65 28 -119 52 -119 52 -5 7 -14 47
-11 47 3 0 103 -36 224 -81z m1181 -129 c38 -27 42 -34 42 -74 0 -39 -4 -47
-42 -78 l-43 -34 -40 22 c-39 22 -40 25 -45 84 l-5 61 40 24 c22 13 43 24 46
25 3 0 25 -14 47 -30z m-4000 -280 c48 -45 16 -130 -48 -130 -38 0 -80 39 -80
75 0 35 42 75 78 75 15 0 38 -9 50 -20z m-2565 -95 l38 -33 -38 -36 c-21 -19
-42 -35 -48 -35 -5 0 -27 15 -47 34 l-38 35 38 35 c20 19 42 34 47 34 6 0 27
-15 48 -34z m2722 -115 c66 -40 141 -88 167 -107 37 -27 65 -37 133 -49 82
-14 216 -47 334 -81 38 -11 64 -27 89 -54 19 -21 40 -35 45 -32 6 3 7 1 4 -4
-11 -18 26 -42 56 -36 15 3 27 9 27 14 0 5 9 9 20 9 11 0 20 5 20 10 0 6 9 10
20 10 33 0 23 16 -17 28 l-38 11 45 -6 c25 -3 50 -9 56 -14 6 -5 18 -7 27 -3
8 3 18 1 22 -5 3 -6 0 -9 -8 -5 -8 3 -18 1 -21 -4 -6 -10 36 -8 52 2 6 3 43 0
84 -8 53 -10 94 -12 148 -6 119 14 150 13 150 -7 0 -9 11 -29 25 -43 l24 -26
-75 -159 c-41 -88 -118 -248 -170 -355 -80 -165 -93 -200 -88 -227 9 -47 -16
-83 -59 -83 -43 0 -57 15 -57 60 0 36 -5 41 -217 206 -119 93 -264 207 -321
252 -158 126 -146 121 -175 75 -13 -21 -77 -137 -142 -258 -65 -121 -159 -294
-209 -385 -49 -91 -111 -205 -136 -253 -46 -87 -46 -88 -65 -67 -10 11 -19 29
-20 39 -5 63 18 537 55 1166 27 451 25 437 58 457 14 9 29 15 32 13 3 -1 59
-35 125 -75z m-262 38 c-5 -7 -103 -145 -217 -306 -115 -160 -212 -295 -217
-298 -5 -3 -12 2 -15 10 -6 16 -1 23 201 306 190 265 236 323 248 311 7 -7 7
-14 0 -23z m4276 -833 c-1 -388 -3 -704 -5 -703 -2 2 -4 22 -5 44 -2 33 -6 40
-20 37 -11 -3 -19 3 -24 16 -3 12 -11 19 -16 16 -5 -4 -9 5 -9 19 0 19 -5 26
-20 26 -11 0 -20 5 -20 10 0 6 -9 10 -20 10 -11 0 -20 5 -20 10 0 6 -9 10 -20
10 -11 0 -20 7 -20 15 0 8 -9 15 -20 15 -11 0 -20 -7 -20 -15 0 -11 -12 -15
-49 -15 -58 0 -83 -8 -74 -23 3 -6 1 -7 -6 -3 -6 4 -9 12 -6 17 4 5 2 9 -3 9
-4 0 -39 43 -77 95 -37 52 -75 95 -83 95 -8 0 -78 -32 -155 -70 -77 -39 -142
-69 -144 -66 -3 2 5 7 16 11 29 9 29 55 1 55 -13 0 -20 7 -20 19 0 21 -46 35
-58 17 -4 -6 -16 -18 -26 -26 -23 -17 11 26 344 439 135 167 296 370 358 450
132 171 153 191 193 191 l29 0 -1 -705z m-3182 519 c-3 -3 -12 -4 -19 -1 -8 3
-5 6 6 6 11 1 17 -2 13 -5z m1137 -471 c37 -39 66 -78 64 -85 -3 -7 -74 57
-169 152 -263 263 -286 289 -270 300 14 8 58 -34 375 -367z m154 140 c24 -40
41 -77 37 -83 -3 -6 -29 -22 -58 -36 -48 -25 -51 -25 -64 -8 -9 12 -13 54 -13
138 l1 121 27 -30 c15 -17 47 -62 70 -102z m-2849 12 c33 -16 41 -33 41 -80 0
-64 -88 -99 -141 -56 -30 24 -33 89 -5 120 16 17 29 23 69 30 4 0 21 -6 36
-14z m3018 -167 c46 -28 43 -52 -14 -88 -26 -16 -55 -32 -65 -36 -14 -4 -18
-16 -18 -55 0 -56 -4 -58 -69 -27 -59 28 -56 27 -45 38 7 7 7 31 1 71 -11 70
-12 69 70 114 54 29 60 31 82 17 13 -8 39 -23 58 -34z m-2878 -290 c136 -279
241 -510 241 -530 0 -33 -42 45 -204 379 -178 368 -198 413 -176 413 6 0 69
-118 139 -262z m3142 205 l49 -26 -1 -61 c-1 -46 -3 -55 -9 -36 -5 15 -8 18
-9 8 -1 -11 -7 -15 -20 -11 -10 3 -28 0 -39 -6 -18 -10 -21 -8 -25 17 -4 25
-5 26 -12 5 -5 -15 -16 -22 -33 -22 -59 -2 -64 -4 -59 -23 3 -10 1 -16 -4 -12
-5 3 -9 38 -9 78 l0 72 43 21 c55 28 70 28 128 -4z m-521 -32 c0 -20 -36 -33
-226 -79 -220 -54 -274 -65 -274 -53 0 8 179 61 390 115 113 29 110 28 110 17z
m33 -156 c28 -19 73 -42 99 -51 41 -13 52 -24 83 -74 58 -95 80 -153 161 -425
42 -143 78 -261 78 -262 1 -1 12 -4 26 -8 24 -6 33 6 143 172 148 226 153 231
168 216 10 -10 -17 -56 -124 -216 -85 -127 -137 -214 -137 -229 0 -41 -36 -78
-76 -78 -28 0 -38 6 -56 36 -27 41 -85 69 -563 264 -392 160 -408 167 -401
186 3 9 6 26 6 39 0 18 17 37 63 72 57 44 111 89 384 321 47 39 88 72 90 72 2
0 27 -16 56 -35z m590 -214 c41 -29 83 -61 93 -73 19 -20 19 -20 -11 -15 -57
12 -190 28 -288 36 -54 4 -103 13 -108 18 -7 7 -1 21 19 44 16 19 41 53 55 76
l26 42 70 -38 c38 -21 102 -62 144 -90z m117 27 c30 -62 25 -79 -11 -39 -23
24 -28 36 -19 41 7 5 10 15 7 24 -13 33 3 15 23 -26z m147 -83 c69 -48 4 -161
-73 -126 -24 10 -44 46 -44 77 0 23 46 64 72 64 13 0 33 -7 45 -15z m-1540
-90 l53 -30 0 -56 c0 -51 -2 -57 -27 -68 -15 -7 -43 -26 -64 -42 l-37 -29 -46
27 -45 28 -1 72 0 73 53 30 c28 16 54 29 57 27 3 -1 29 -16 57 -32z m2540 19
c-3 -3 -12 -4 -19 -1 -8 3 -5 6 6 6 11 1 17 -2 13 -5z m-4177 -264 c45 -45 11
-120 -54 -120 -37 0 -76 36 -76 70 0 10 9 29 21 44 26 33 79 36 109 6z m205
-508 c0 -9 5 -16 11 -15 6 1 11 -5 11 -13 0 -7 -3 -14 -7 -14 -14 0 -30 26
-30 49 0 13 3 21 7 17 4 -4 8 -15 8 -24z m5180 -363 c10 -31 63 -86 106 -111
21 -12 39 -25 39 -30 0 -4 -22 -19 -50 -33 -33 -16 -59 -40 -77 -68 -15 -23
-32 -45 -37 -49 -6 -4 -25 15 -43 42 -21 32 -50 58 -84 76 -58 32 -59 28 35
87 30 18 51 41 62 67 20 44 39 51 49 19z m-6326 -166 c23 -47 53 -74 109 -102
23 -12 42 -26 42 -31 0 -5 -23 -19 -50 -31 -54 -23 -96 -65 -106 -105 -9 -37
-36 -28 -69 23 -22 34 -45 54 -87 75 -32 16 -58 33 -58 38 0 6 17 17 37 25 58
24 97 59 118 104 10 23 24 41 31 41 8 0 22 -17 33 -37z m6069 -319 c25 -17 31
-71 10 -92 -17 -17 -64 -15 -82 4 -33 33 -7 104 39 104 6 0 21 -7 33 -16z
m-6714 -90 c18 -18 19 -24 7 -42 -11 -18 -51 -11 -65 11 -9 15 -7 21 8 33 25
18 31 18 50 -2z m551 -79 c0 -25 -4 -30 -24 -30 -28 0 -47 25 -38 49 5 12 16
16 34 14 24 -3 28 -8 28 -33z m895 5 c20 -47 48 -79 91 -100 21 -11 39 -25 39
-30 0 -5 -15 -16 -33 -25 -42 -20 -83 -58 -102 -95 -20 -39 -31 -38 -54 8 -22
42 -42 63 -88 86 -18 9 -33 21 -33 26 0 6 22 24 49 40 32 20 56 45 72 75 28
53 42 56 59 15z m4739 -187 c5 -3 -66 -73 -74 -73 -3 0 -22 15 -41 34 l-35 34
38 36 38 35 35 -32 c19 -18 37 -33 39 -34z m-6085 -151 c27 -54 76 -101 124
-121 41 -17 41 -36 0 -50 -55 -19 -99 -61 -124 -117 -13 -30 -28 -54 -32 -54
-5 0 -19 23 -32 51 -30 63 -63 96 -117 120 -24 10 -43 23 -43 28 0 6 15 18 33
27 60 31 97 65 122 115 14 27 30 49 35 49 5 0 21 -22 34 -48z m6721 -113 c4
-11 27 -31 52 -46 l46 -27 -24 -15 c-31 -20 -80 -69 -100 -101 l-16 -24 -27
42 c-14 23 -44 55 -66 71 l-40 29 47 30 c27 17 56 45 66 62 18 30 20 31 38 14
10 -9 21 -25 24 -35z m-4672 -833 c43 -17 66 -46 188 -231 97 -148 103 -155
120 -139 10 9 64 88 120 176 56 87 113 167 127 178 37 30 106 27 137 -5 14
-13 25 -33 25 -44 0 -11 -60 -116 -133 -233 -74 -117 -146 -234 -160 -259
l-27 -46 0 -257 0 -257 -25 -24 c-33 -34 -103 -35 -140 -2 l-27 22 -2 262 -2
261 -84 133 c-46 74 -119 188 -162 255 -44 68 -78 132 -78 146 0 32 45 73 83
77 4 1 22 -5 40 -13z m-2037 -23 c53 -28 100 -83 113 -130 6 -21 11 -132 11
-248 0 -231 -7 -261 -66 -317 -54 -51 -95 -61 -271 -66 l-163 -5 0 -159 c0
-95 -4 -167 -11 -180 -14 -26 -71 -49 -106 -42 -35 7 -56 22 -71 51 -16 29
-17 1045 -2 1073 25 46 51 50 295 47 215 -2 233 -4 271 -24z m885 -6 c60 -29
102 -78 119 -138 16 -55 12 -796 -4 -842 -21 -57 -61 -103 -113 -128 -45 -23
-59 -24 -233 -24 -210 0 -238 6 -299 65 -70 68 -73 90 -69 532 3 420 4 426 66
491 60 64 117 76 327 74 142 -2 153 -4 206 -30z m480 14 l24 -19 5 -474 5
-473 215 0 c232 0 253 -4 271 -52 13 -35 3 -76 -25 -103 -23 -21 -32 -22 -292
-26 -168 -2 -281 0 -300 7 -67 21 -64 -6 -71 557 -7 543 -6 555 41 587 30 21
99 19 127 -4z m3129 -7 c101 -46 130 -120 130 -323 0 -152 -17 -211 -65 -233
-27 -12 -34 -28 -12 -28 7 0 26 -14 43 -31 l29 -30 3 -161 c4 -179 -5 -222
-56 -271 -55 -53 -90 -60 -314 -65 -236 -5 -271 -1 -304 35 l-24 26 0 519 c0
352 3 526 11 539 20 39 56 44 290 44 206 0 228 -2 269 -21z m726 -8 c31 -34
281 -1047 268 -1083 -5 -15 -25 -35 -45 -45 -30 -15 -44 -17 -80 -9 -24 5 -49
17 -55 26 -7 9 -22 56 -34 106 l-22 89 -142 0 -141 0 -20 -82 c-26 -109 -52
-140 -118 -140 -56 0 -94 22 -103 59 -5 18 34 182 126 532 73 278 139 518 146
533 18 35 62 49 139 43 47 -4 64 -10 81 -29z m954 7 c86 -39 130 -114 130
-220 0 -73 -28 -103 -97 -103 -69 0 -93 20 -93 76 0 35 -6 51 -25 70 -25 25
-29 26 -140 22 -93 -2 -118 -6 -132 -21 -17 -16 -18 -46 -18 -383 l0 -366 24
-19 c19 -16 40 -19 122 -19 54 0 109 5 123 11 27 13 44 46 48 99 3 31 8 36 41
47 54 18 114 7 135 -24 13 -22 14 -37 5 -109 -12 -99 -37 -140 -110 -175 -43
-21 -65 -24 -200 -27 -87 -2 -174 1 -203 7 -72 15 -133 60 -162 118 -23 48
-23 48 -23 448 0 362 2 404 18 447 22 56 82 113 134 127 70 18 87 19 233 17
123 -2 152 -5 190 -23z m453 16 c42 -19 47 -48 47 -249 0 -105 4 -190 8 -190
5 0 77 94 160 209 84 115 163 216 177 225 31 20 113 21 142 1 34 -24 34 -51
-1 -103 -18 -26 -96 -134 -174 -241 -78 -107 -142 -201 -142 -209 0 -8 53 -92
118 -186 197 -284 232 -337 232 -349 0 -43 -69 -83 -123 -73 -44 8 -74 42
-192 211 -88 126 -144 203 -166 229 -4 5 -15 2 -23 -7 -13 -13 -16 -45 -16
-186 0 -93 -4 -181 -10 -195 -11 -29 -57 -56 -96 -56 -16 0 -38 12 -60 34
l-34 34 0 522 c0 337 4 528 10 540 23 42 94 61 143 39z m-3541 -258 c13 -11
86 -100 163 -198 76 -98 145 -185 153 -193 12 -13 13 5 7 142 -9 194 -3 233
35 253 36 19 63 19 99 1 50 -26 52 -41 44 -383 l-6 -315 -31 -19 c-38 -23 -74
-24 -103 -4 -21 15 -157 187 -271 342 -29 40 -56 73 -60 73 -4 0 -7 -86 -7
-191 l0 -191 -28 -24 c-31 -26 -66 -31 -100 -12 -46 24 -46 27 -47 365 l0 321
31 26 c37 31 86 34 121 7z m702 -295 c42 -18 66 -51 66 -93 0 -72 -43 -113
-120 -113 -114 0 -142 160 -37 205 41 18 50 18 91 1z m2256 -919 c32 -16 39
-73 13 -105 l-18 -22 -2699 0 c-2502 0 -2701 1 -2718 16 -18 17 -24 69 -10 90
4 6 16 16 27 22 31 17 5370 17 5405 -1z"/>
<path d="M4919 9039 c-52 -61 -156 -192 -231 -291 -123 -162 -136 -182 -126
-203 23 -51 -24 -114 -77 -101 -32 8 -65 44 -65 71 0 14 -64 85 -195 216 -215
214 -235 226 -268 169 -20 -33 -366 -491 -398 -525 -15 -17 -23 -64 -44 -245
-14 -124 -28 -238 -31 -254 -5 -23 -1 -33 22 -51 l28 -22 51 41 c29 23 132 97
230 166 98 69 277 196 398 282 199 142 222 155 243 146 13 -6 24 -14 24 -17 0
-9 30 -363 39 -464 5 -48 10 -89 12 -91 2 -2 18 -7 36 -11 l32 -6 167 252
c229 347 297 439 327 439 28 0 72 27 91 54 9 15 26 26 39 26 50 1 125 10 184
21 35 7 66 9 70 6 8 -9 -39 -207 -49 -207 -3 0 -9 -18 -13 -39 -4 -22 -13 -42
-21 -45 -8 -3 -14 -1 -14 4 0 5 -7 7 -15 4 -8 -4 -15 -13 -15 -22 0 -12 -3
-13 -12 -4 -17 17 -28 15 -28 -5 0 -14 -3 -14 -22 3 -12 10 -5 -2 16 -28 21
-26 42 -45 47 -42 5 3 6 -3 2 -12 -4 -12 -3 -15 5 -10 7 4 12 1 12 -9 0 -13 4
-14 21 -5 11 6 31 10 44 8 21 -2 36 11 90 82 64 83 320 421 462 609 39 52 69
99 66 104 -3 4 -19 5 -36 2 -33 -7 -631 -198 -749 -240 l-67 -23 -65 34 -66
35 0 145 c0 132 -1 144 -18 144 -10 0 -23 5 -28 10 -8 8 -39 -23 -105 -101z
m191 -254 c42 -22 50 -30 50 -54 0 -50 -12 -93 -29 -99 -9 -3 -28 -14 -42 -24
-26 -19 -26 -19 -74 9 -52 30 -58 45 -50 109 5 35 11 43 48 62 23 11 43 21 45
21 1 1 25 -10 52 -24z"/>
<path d="M6774 8705 c-10 -24 12 -42 34 -29 24 16 21 38 -6 42 -13 2 -25 -3
-28 -13z"/>
<path d="M5252 8374 c10 -10 20 -16 22 -13 3 3 -5 11 -17 18 -21 13 -21 12 -5
-5z"/>
<path d="M5960 8380 c-8 -5 -10 -10 -5 -10 6 0 17 5 25 10 8 5 11 10 5 10 -5
0 -17 -5 -25 -10z"/>
<path d="M5890 8350 c-19 -11 -31 -19 -27 -20 11 0 67 29 67 35 0 7 -1 7 -40
-15z"/>
<path d="M5591 8216 c-21 -12 -22 -14 -5 -20 10 -4 15 -4 11 0 -4 5 3 14 15
21 13 7 19 12 13 12 -5 0 -21 -6 -34 -13z"/>
<path d="M5158 8053 c7 -3 16 -2 19 1 4 3 -2 6 -13 5 -11 0 -14 -3 -6 -6z"/>
<path d="M7571 7068 c0 -13 3 -17 6 -10 2 6 9 10 14 6 5 -3 9 2 9 10 0 9 -7
16 -15 16 -9 0 -15 -9 -14 -22z"/>
<path d="M8203 5995 c-3 -9 -3 -18 0 -21 9 -9 27 6 27 22 0 19 -19 18 -27 -1z"/>
<path d="M8213 5913 c-26 -5 -336 -442 -338 -476 0 -5 -7 -14 -15 -20 -21 -17
-48 -53 -32 -43 15 9 15 1 0 -23 -9 -15 -8 -22 5 -35 9 -9 13 -24 10 -32 -5
-13 2 -15 43 -10 62 8 28 -9 -38 -19 -44 -7 -46 -6 -53 22 -4 15 -10 22 -12
15 -3 -6 -8 -10 -12 -8 -4 3 -8 -6 -9 -20 -1 -17 3 -24 16 -25 14 0 14 -2 -3
-8 -11 -5 -26 -6 -34 -3 -10 4 -12 1 -6 -8 6 -10 4 -12 -9 -7 -9 4 -14 3 -11
-2 3 -5 -4 -12 -15 -16 -11 -3 -20 -12 -20 -19 0 -12 388 -141 413 -137 6 1
32 3 57 4 36 2 55 10 90 38 25 20 106 77 181 127 113 75 137 95 141 119 3 15
8 37 13 48 5 16 5 17 -4 5 -9 -12 -11 -11 -11 10 -1 14 -33 78 -73 142 -147
239 -242 388 -247 387 -3 -1 -15 -4 -27 -6z m331 -491 c3 -5 -1 -9 -9 -9 -8 0
-12 4 -9 9 3 4 7 8 9 8 2 0 6 -4 9 -8z m-399 -80 c-3 -3 -11 0 -18 7 -9 10 -8
11 6 5 10 -3 15 -9 12 -12z m-145 -32 c22 -7 21 -8 -12 -9 -21 -1 -38 -5 -38
-11 0 -5 -7 -7 -15 -4 -11 5 -12 9 -2 20 13 15 30 16 67 4z"/>
<path d="M2455 5400 c-99 -4 -193 -10 -210 -14 -30 -6 -486 -76 -502 -76 -12
-1 24 -28 182 -140 77 -54 154 -112 171 -128 25 -23 36 -27 55 -20 13 5 34 6
47 3 15 -4 47 5 90 26 100 47 646 282 732 314 41 16 79 32 84 37 11 9 -378 8
-649 -2z"/>
<path d="M3900 4851 c-105 -45 -136 -63 -138 -79 -2 -11 11 -49 29 -84 18 -34
53 -111 78 -169 25 -58 51 -107 56 -110 6 -2 20 39 32 91 13 52 39 160 58 240
37 152 40 171 28 169 -5 0 -69 -27 -143 -58z"/>
<path d="M4081 4863 c-28 -103 -39 -178 -30 -195 6 -10 14 -16 20 -13 5 4 9 1
9 -4 0 -6 9 -11 20 -11 10 0 23 -7 27 -14 7 -12 20 -13 66 -7 31 4 57 4 57 -1
0 -4 12 -8 26 -8 14 0 34 -5 45 -10 10 -6 19 -8 19 -5 0 3 -35 48 -77 101 -43
53 -95 117 -115 144 -50 65 -55 67 -67 23z"/>
<path d="M4705 4570 c-88 -77 -169 -146 -180 -154 -22 -16 -196 -57 -362 -85
-125 -21 -137 -17 162 -56 185 -25 549 -80 591 -90 15 -3 24 2 32 20 13 28 54
42 89 29 22 -8 42 8 234 201 162 163 209 205 209 187 0 -16 -56 -80 -191 -217
-105 -107 -194 -193 -198 -191 -16 10 6 -82 25 -106 21 -26 23 -27 192 -34
156 -6 172 -9 172 -25 0 -19 39 -54 70 -64 11 -3 17 -12 14 -19 -6 -15 40 -56
62 -56 8 0 14 -8 14 -17 1 -17 1 -17 11 0 7 12 7 28 -1 53 -8 23 -9 39 -2 46
10 10 56 -91 112 -254 32 -90 36 -97 64 -101 17 -3 94 7 171 23 77 16 244 48
370 70 127 23 241 44 254 48 23 8 21 12 -73 152 -141 207 -214 300 -236 300
-20 0 -60 44 -60 66 0 7 -143 84 -327 175 -270 133 -330 159 -345 150 -20 -13
-57 -14 -75 -3 -6 4 -16 19 -21 33 l-10 25 -208 12 c-115 7 -252 15 -304 18
l-95 5 -160 -141z m967 -325 c47 -35 48 -35 42 -82 -8 -68 -8 -67 -59 -97
l-46 -27 -44 26 -45 26 0 67 0 67 48 27 c26 15 49 27 52 27 3 0 26 -15 52 -34z"/>
<path d="M5322 3777 c2 -6 52 -108 111 -225 83 -164 112 -212 127 -212 11 0
47 32 89 79 81 93 90 108 82 141 -6 20 -43 44 -201 127 -107 56 -199 102 -203
103 -5 0 -7 -6 -5 -13z"/>
<path d="M6515 3725 c-60 -12 -228 -44 -372 -70 -249 -46 -263 -50 -263 -71 0
-18 18 -28 127 -70 87 -33 141 -48 168 -47 22 1 154 24 293 52 139 28 276 53
305 57 48 6 87 26 87 45 0 13 -196 129 -216 128 -10 -1 -68 -12 -129 -24z"/>
<path d="M5745 3640 c-3 -5 -1 -10 4 -10 6 0 11 5 11 10 0 6 -2 10 -4 10 -3 0
-8 -4 -11 -10z"/>
<path d="M2862 8596 c7 -8 15 -11 18 -7 3 3 9 9 14 14 5 4 -3 7 -18 7 -22 0
-25 -2 -14 -14z"/>
<path d="M2840 8575 c0 -8 5 -15 10 -15 6 0 10 7 10 15 0 8 -4 15 -10 15 -5 0
-10 -7 -10 -15z"/>
<path d="M5193 7578 c-6 -7 -7 -22 -3 -33 6 -17 8 -15 13 10 6 35 4 40 -10 23z"/>
<path d="M5171 7204 c0 -11 3 -14 6 -6 3 7 2 16 -1 19 -3 4 -6 -2 -5 -13z"/>
<path d="M5161 7114 c0 -11 3 -14 6 -6 3 7 2 16 -1 19 -3 4 -6 -2 -5 -13z"/>
<path d="M5170 7030 c0 -5 5 -10 11 -10 5 0 7 5 4 10 -3 6 -8 10 -11 10 -2 0
-4 -4 -4 -10z"/>
<path d="M4530 6755 c0 -5 5 -17 10 -25 5 -8 10 -10 10 -5 0 6 -5 17 -10 25
-5 8 -10 11 -10 5z"/>
<path d="M4700 6720 c12 -8 10 -10 -9 -10 -13 0 -22 -3 -19 -6 3 -3 22 -2 42
2 42 7 42 9 1 18 -22 5 -26 4 -15 -4z"/>
<path d="M4638 6693 c7 -3 16 -2 19 1 4 3 -2 6 -13 5 -11 0 -14 -3 -6 -6z"/>
<path d="M4421 6663 c6 -7 21 -12 33 -12 20 2 20 2 -2 6 -12 2 -20 8 -18 12 3
4 -1 8 -9 8 -11 0 -12 -4 -4 -14z"/>
<path d="M4505 6670 c-16 -7 -17 -9 -3 -9 9 -1 20 4 23 9 7 11 7 11 -20 0z"/>
<path d="M1480 2437 c-3 -3 -4 -100 -2 -216 l3 -211 133 0 c179 0 169 -12 170
215 1 222 11 209 -167 213 -73 2 -134 1 -137 -1z"/>
<path d="M2370 2422 l-25 -20 0 -367 0 -367 24 -19 c20 -16 40 -19 136 -19 98
0 116 3 139 21 l26 20 0 369 c0 329 -2 369 -17 381 -11 10 -53 15 -137 17
-110 3 -124 2 -146 -16z"/>
<path d="M5980 2286 l0 -156 133 0 c172 0 167 -4 167 151 0 159 6 153 -164
157 l-136 4 0 -156z"/>
<path d="M5982 1793 l3 -158 128 -3 c124 -3 128 -2 152 22 24 24 25 31 25 138
0 162 5 158 -171 158 l-140 0 3 -157z"/>
<path d="M6951 2163 c-28 -105 -71 -290 -71 -305 0 -16 10 -18 88 -18 49 0 91
2 94 5 3 3 -10 68 -29 143 -52 207 -53 212 -63 212 -5 0 -14 -17 -19 -37z"/>
</g>
</svg>
